HIERARCHY
ROOT Hips
{
	OFFSET 0.00000 0.00000 0.00000
	CHANNELS 6 Xposition Yposition Zposition Zrotation Yrotation Xrotation 
	JOINT LHipJoint
	{
		OFFSET 0 0 0
		CHANNELS 3 Zrotation Yrotation Xrotation
		JOINT LeftUpLeg
		{
			OFFSET 1.37324 -1.83837 0.85674
			CHANNELS 3 Zrotation Yrotation Xrotation
			JOINT LeftLeg
			{
				OFFSET 2.53826 -6.97383 0.00000
				CHANNELS 3 Zrotation Yrotation Xrotation
				JOINT LeftFoot
				{
					OFFSET 2.65296 -7.28895 0.00000
					CHANNELS 3 Zrotation Yrotation Xrotation
					JOINT LeftToeBase
					{
						OFFSET 0.22100 -0.60718 2.29776
						CHANNELS 3 Zrotation Yrotation Xrotation
						End Site
						{
							OFFSET 0.00000 -0.00000 1.19228
						}
					}
				}
			}
		}
	}
	JOINT RHipJoint
	{
		OFFSET 0 0 0
		CHANNELS 3 Zrotation Yrotation Xrotation
		JOINT RightUpLeg
		{
			OFFSET -1.30156 -1.83836 0.85673
			CHANNELS 3 Zrotation Yrotation Xrotation
			JOINT RightLeg
			{
				OFFSET -2.63627 -7.24310 0.00000
				CHANNELS 3 Zrotation Yrotation Xrotation
				JOINT RightFoot
				{
					OFFSET -2.62024 -7.19904 0.00000
					CHANNELS 3 Zrotation Yrotation Xrotation
					JOINT RightToeBase
					{
						OFFSET -0.20765 -0.57052 2.42402
						CHANNELS 3 Zrotation Yrotation Xrotation
						End Site
						{
							OFFSET -0.00000 -0.00000 1.24980
						}
					}
				}
			}
		}
	}
	JOINT LowerBack
	{
		OFFSET 0 0 0
		CHANNELS 3 Zrotation Yrotation Xrotation
		JOINT Spine
		{
			OFFSET 0.05739 2.14162 -0.22815
			CHANNELS 3 Zrotation Yrotation Xrotation
			JOINT Spine1
			{
				OFFSET 0.02798 2.14167 0.08145
				CHANNELS 3 Zrotation Yrotation Xrotation
				JOINT Neck
				{
					OFFSET 0 0 0
					CHANNELS 3 Zrotation Yrotation Xrotation
					JOINT Neck1
					{
						OFFSET -0.07019 1.58903 0.32980
						CHANNELS 3 Zrotation Yrotation Xrotation
						JOINT Head
						{
							OFFSET -0.03205 1.65283 -0.21190
							CHANNELS 3 Zrotation Yrotation Xrotation
							End Site
							{
								OFFSET -0.00726 1.66788 -0.10849
							}
						}
					}
				}
				JOINT LeftShoulder
				{
					OFFSET 0 0 0
					CHANNELS 3 Zrotation Yrotation Xrotation
					JOINT LeftArm
					{
						OFFSET 3.92858 0.97533 -0.07938
						CHANNELS 3 Zrotation Yrotation Xrotation
						JOINT LeftForeArm
						{
							OFFSET 5.58345 -0.00000 -0.00000
							CHANNELS 3 Zrotation Yrotation Xrotation
							JOINT LeftHand
							{
								OFFSET 3.71087 -0.00000 0.00000
								CHANNELS 3 Zrotation Yrotation Xrotation
								JOINT LeftFingerBase
								{
									OFFSET 0 0 0
									CHANNELS 3 Zrotation Yrotation Xrotation
									JOINT LeftHandIndex1
									{
										OFFSET 0.56232 -0.00000 -0.00000
										CHANNELS 3 Zrotation Yrotation Xrotation
										End Site
										{
											OFFSET 0.45336 -0.00000 -0.00000
										}
									}
								}
								JOINT LThumb
								{
									OFFSET 0 0 0
									CHANNELS 3 Zrotation Yrotation Xrotation
									End Site
									{
										OFFSET 0.46028 -0.00000 0.46028
									}
								}
							}
						}
					}
				}
				JOINT RightShoulder
				{
					OFFSET 0 0 0
					CHANNELS 3 Zrotation Yrotation Xrotation
					JOINT RightArm
					{
						OFFSET -3.89897 1.08887 -0.22589
						CHANNELS 3 Zrotation Yrotation Xrotation
						JOINT RightForeArm
						{
							OFFSET -5.20357 -0.00000 -0.00000
							CHANNELS 3 Zrotation Yrotation Xrotation
							JOINT RightHand
							{
								OFFSET -3.64937 -0.00000 0.00000
								CHANNELS 3 Zrotation Yrotation Xrotation
								JOINT RightFingerBase
								{
									OFFSET 0 0 0
									CHANNELS 3 Zrotation Yrotation Xrotation
									JOINT RightHandIndex1
									{
										OFFSET -0.61800 -0.00000 -0.00000
										CHANNELS 3 Zrotation Yrotation Xrotation
										End Site
										{
											OFFSET -0.49824 -0.00000 -0.00000
										}
									}
								}
								JOINT RThumb
								{
									OFFSET 0 0 0
									CHANNELS 3 Zrotation Yrotation Xrotation
									End Site
									{
										OFFSET -0.50585 -0.00000 0.50585
									}
								}
							}
						}
					}
				}
			}
		}
	}
}
MOTION
Frames: 16
Frame Time: 0.0571429
0.00 0.00 0.00 0 0 0 0 0 0 -21 0 0 0 0 0 0 0 0 0 0 0 0 0 0 21 0 0 0 0 0 0 0 0 0 0 0 0 0 0 0 0 0 0 0 0 0 0 -16 0 0 21 0 0 11 0 0 0 -8 0 0 0 0 0 0 0 0 0 0 0 0 0 0 0 0 0 0 0 0 8 0 0 0 0 0 0 0 0 0 0 0 0 0 0 0 0 0
0.00 0.00 0.00 -5.5377 8.2086 -16.6444 0.0000 0.0000 0.0000 -8.9179 -8.3703 -36.1552 23.7288 19.6633 100.9614 -0.0367 -12.6013 -8.3475 0.0386 -1.2686 -3.4883 0.0000 0.0000 0.0000 18.3599 5.8141 -37.9476 -6.2545 -14.6705 45.9948 0.1317 -10.1512 4.6817 -0.1724 -2.6750 7.3752 2.9715 -2.2541 26.9817 3.7527 -1.5951 4.0602 3.0765 -0.7658 -10.4088 -1.0152 -0.1508 -21.9998 -3.8808 1.1979 22.3920 -1.0526 -0.0432 10.9041 0.0000 -0.0000 0.0000 -78.3106 14.6325 47.3980 133.7591 -51.3621 -96.7960 -0.0000 0.0000 -2.8609 27.0970 -6.6852 -3.4088 -7.1250 0.0000 -0.0000 0.2460 22.4792 -0.1333 0.0000 -0.0000 0.0000 85.9731 -31.3687 18.6175 -73.2367 58.9111 -45.5357 0.0000 -0.0000 -10.1361 -35.8876 3.1638 -2.2868 7.1250 -0.0000 -0.0000 -7.0267 -26.0668 -3.2473
0.00 0.00 0.00 -10.3663 3.9936 -18.6825 0.0000 0.0000 0.0000 -2.4047 -6.2529 -43.9164 21.0226 19.9749 92.9912 0.3107 -12.8029 -12.5812 0.0720 -1.7307 -4.7619 0.0000 0.0000 0.0000 25.2197 7.6985 -38.6975 -10.9627 -17.9168 62.6605 0.0641 -5.9887 -6.4093 -0.1167 -2.2028 6.0666 7.8157 -0.8296 28.2336 5.4504 1.9582 4.4892 0.9779 0.7484 -10.5396 -2.4353 -1.4927 -21.0024 -3.2709 -0.4127 21.8838 -0.8297 -0.8038 10.5104 0.0000 0.0000 0.0000 -82.1405 17.2927 40.2679 128.2646 -53.6719 -92.4337 -0.0000 0.0000 -0.1054 28.0332 -4.4137 -2.3464 -7.1250 0.0000 -0.0000 1.0380 24.9822 -0.5026 0.0000 0.0000 0.0000 83.4272 -24.8475 18.9214 -69.4176 58.3372 -42.2746 0.0000 -0.0000 -8.8761 -36.6609 2.8275 -2.1028 7.1250 -0.0000 -0.0000 -7.6443 -26.4414 -3.4697
0.00 0.00 0.00 -9.6083 5.7019 -18.0615 0.0000 0.0000 0.0000 -5.3439 -9.2786 -47.9727 16.1837 19.6472 78.7787 0.3971 -8.1279 -11.7798 0.0389 -1.2726 -3.4992 0.0000 0.0000 0.0000 24.8260 6.5868 -38.2667 -13.3929 -18.9195 70.3414 -0.3803 -4.5963 -14.2538 -0.0388 -1.2719 3.4973 5.0134 -0.0607 26.0597 5.5565 1.9508 4.3691 2.6822 0.8660 -9.6639 -1.9807 -1.6945 -21.2721 -3.3700 -0.7540 23.5643 -1.0194 -0.9568 11.1761 0.0000 0.0000 0.0000 -85.7027 19.1493 33.8833 118.9292 -56.5886 -84.7665 -0.0000 0.0000 -0.4653 30.1463 -1.6424 -0.9536 -7.1250 0.0000 -0.0000 2.7607 28.0769 -1.1377 0.0000 0.0000 0.0000 79.8894 -18.7890 21.6880 -62.6711 56.9807 -36.5724 0.0000 -0.0000 -9.3787 -37.2848 2.7016 -2.0553 7.1250 -0.0000 -0.0000 -8.1285 -26.5670 -3.6694
0.00 0.00 0.00 -10.2388 7.6893 -19.9114 0.0000 0.0000 0.0000 -7.0991 -13.2980 -44.9608 10.4404 17.6502 60.9503 0.0086 -8.5620 -6.1677 0.1902 -2.8085 -7.7461 0.0000 0.0000 0.0000 25.9636 3.3164 -33.6801 -14.5930 -19.2841 74.0076 -0.9436 -3.9071 -20.1584 -0.0005 -0.1493 0.4103 4.9858 -0.4800 26.9485 5.4696 1.4777 4.3816 2.7728 0.6417 -10.0995 -2.0198 -2.0152 -20.7626 -2.5252 -1.4325 24.1388 -0.8110 -1.1600 11.2908 -0.0000 0.0000 0.0000 -86.6340 20.2594 30.3177 106.7618 -58.9113 -74.4631 -0.0000 0.0000 -4.7490 30.6794 -1.4456 -0.8575 -7.1250 0.0000 -0.0000 3.1817 28.2939 -1.2953 -0.0000 0.0000 0.0000 78.7174 -14.2664 22.1116 -58.4464 55.8815 -33.0516 0.0000 -0.0000 -3.9334 -36.9613 2.8519 -2.1442 7.1250 -0.0000 -0.0000 -7.8678 -26.3965 -3.5813
0.00 0.00 0.00 -9.7097 7.7897 -20.6290 0.0000 0.0000 0.0000 -8.6330 -17.4685 -37.6225 5.2350 13.6437 41.8284 -0.1105 -6.3287 -0.1749 0.5489 -4.7464 -13.1867 0.0000 0.0000 0.0000 26.1730 0.1902 -28.7254 -16.0857 -19.6286 78.4870 -1.3750 -3.2237 -23.5177 -0.2238 3.0451 -8.4044 5.7326 -0.0985 25.4733 4.9118 1.9800 4.4268 1.5310 0.8594 -9.2422 -2.5846 -2.6947 -20.6691 -1.8870 -2.3703 25.0509 -0.6415 -1.5581 11.6325 -0.0000 0.0000 0.0000 -85.6645 24.1385 31.3913 97.1467 -59.8061 -66.1852 -0.0000 0.0000 -5.2619 28.5287 -4.8971 -2.6569 -7.1250 0.0000 -0.0000 1.3874 24.4100 -0.6902 -0.0000 0.0000 0.0000 78.0295 -11.7183 22.3569 -63.1257 57.0869 -36.9538 0.0000 -0.0000 -3.4270 -36.2427 2.9116 -2.1324 7.1250 -0.0000 -0.0000 -7.3204 -26.3583 -3.3347
0.00 0.00 0.00 -7.4718 4.4988 -20.9256 0.0000 0.0000 0.0000 -11.5464 -15.7695 -30.4194 4.6384 12.9647 39.2364 0.2612 -3.6605 11.7133 0.4087 -4.1040 -11.3695 0.0000 0.0000 0.0000 22.3308 -0.6464 -30.1689 -21.4704 -19.9481 94.3026 -0.1978 -2.4287 -9.6599 -0.1931 2.8297 -7.8050 5.4078 0.5678 22.7443 3.9552 2.4314 4.1350 0.5342 1.0874 -8.1021 -2.0342 -2.3792 -20.2947 -1.9437 -2.0852 26.8365 -0.7294 -1.3939 12.2424 -0.0000 -0.0000 0.0000 -85.4961 30.7242 33.5659 85.9487 -59.9379 -56.4922 -0.0000 -0.0000 2.9070 26.1338 -7.7681 -3.7940 -7.1250 0.0000 -0.0000 -0.5052 21.3400 0.2867 -0.0000 -0.0000 0.0000 75.9546 -9.5834 26.7824 -76.6341 59.3141 -48.4515 0.0000 -0.0000 -2.0818 -33.9286 5.6780 -3.8077 7.1250 -0.0000 -0.0000 -5.3229 -23.1539 -2.8129
0.00 0.00 0.00 -2.9790 4.4954 -22.6684 0.0000 0.0000 0.0000 -16.0886 -13.7560 -32.9808 8.8718 16.7245 55.6456 -0.0467 -5.3062 5.8417 0.0001 0.0557 0.1532 0.0000 0.0000 0.0000 16.2148 -0.2726 -35.4358 -22.4327 -19.8575 97.1291 -0.5078 1.6837 -12.9845 -0.1963 2.8528 -7.8692 0.7936 0.6792 25.5031 2.7914 1.4238 4.1846 2.1802 0.7024 -9.5958 -1.9599 -1.6045 -20.3787 -2.1828 -0.9378 26.4519 -0.6416 -0.9081 12.1087 -0.0000 0.0000 0.0000 -87.4052 29.8556 34.5062 72.5836 -58.8222 -44.9766 -0.0000 -0.0000 1.4400 25.6562 -7.6501 -3.6587 -7.1250 0.0000 -0.0000 -0.8467 21.5049 0.4774 -0.0000 0.0000 0.0000 77.6053 -5.8402 27.2431 -82.4823 59.7854 -53.4942 0.0000 0.0000 1.9544 -35.2257 4.6192 -3.2546 7.1250 -0.0000 -0.0000 -6.3827 -24.3339 -3.2047
0.00 0.00 0.00 -4.1184 1.7763 -21.6269 0.0000 0.0000 0.0000 -13.9385 -11.7497 -33.5230 11.1720 18.0183 63.3390 -0.0902 -6.6969 -1.8952 0.0054 0.4733 1.3006 0.0000 0.0000 0.0000 19.6514 2.2189 -39.5035 -18.0888 -19.9122 84.4042 -0.8268 -1.4847 -17.7757 -0.1985 2.8687 -7.9135 4.1497 0.2697 24.0192 3.0172 1.7323 3.9174 0.4142 0.7484 -9.0372 -2.0346 -1.2391 -19.9313 -3.0619 -0.1348 26.5337 -0.8271 -0.6750 12.0584 0.0000 0.0000 0.0000 -88.3343 24.7977 35.7649 57.7731 -55.6867 -32.4948 -0.0000 -0.0000 3.3746 24.7986 -5.5731 -2.5692 -7.1250 0.0000 -0.0000 -1.4123 23.8450 0.7210 0.0000 0.0000 0.0000 80.4715 -4.2221 25.5406 -81.4125 59.7195 -52.5700 0.0000 -0.0000 -1.7953 -36.6430 3.8806 -2.8819 7.1250 -0.0000 -0.0000 -7.5129 -25.1438 -3.6386
0.00 0.00 0.00 -1.6112 1.8897 -21.4366 0.0000 0.0000 0.0000 -17.4308 -11.1033 -29.9543 12.0285 18.4027 66.0791 0.1197 -6.4932 -7.1503 0.0144 0.7741 2.1275 0.0000 0.0000 0.0000 18.0240 3.7077 -38.5905 -12.2671 -18.5013 66.8329 -0.7221 3.0240 -15.3133 -0.4973 4.5210 -12.5472 2.8649 0.1996 23.3574 2.3205 1.2119 3.8433 0.5428 0.5315 -8.7914 -1.7773 -0.8595 -19.4935 -3.9798 0.5867 26.6121 -1.0981 -0.4471 12.0150 0.0000 -0.0000 0.0000 -89.8380 19.4564 33.8214 44.8441 -50.6919 -22.1180 -0.0000 -0.0000 11.1716 25.8519 -5.8123 -2.8092 -7.1250 0.0000 -0.0000 -0.6374 23.5264 0.3300 0.0000 -0.0000 0.0000 82.3791 -1.7181 24.3396 -71.2589 58.6304 -43.8444 0.0000 -0.0000 -0.4376 -37.8764 2.9962 -2.3281 7.1250 -0.0000 -0.0000 -8.5377 -26.1696 -3.9383
0.00 0.00 0.00 -2.3258 2.8351 -21.2399 0.0000 0.0000 0.0000 -17.2004 -9.6169 -25.7623 12.6662 18.6583 68.0855 0.2844 -8.8941 -10.5997 0.0162 0.8211 2.2567 0.0000 0.0000 0.0000 19.8362 5.2158 -32.2750 -7.0408 -15.3662 49.0285 -0.0446 0.1349 -3.9429 -0.1786 2.7221 -7.5059 3.2712 -0.2989 21.5716 2.7898 0.6194 3.6997 0.9963 0.2518 -8.0106 -1.8578 -0.8815 -19.4701 -4.3029 0.6724 26.4969 -1.1904 -0.4585 11.9705 -0.0000 -0.0000 0.0000 -90.0369 15.5813 33.9453 39.1749 -47.5734 -17.8277 -0.0000 -0.0000 9.1695 26.2274 -3.5531 -1.7488 -7.1250 0.0000 -0.0000 -0.2978 26.0200 0.1370 -0.0000 -0.0000 0.0000 83.3916 -3.1707 24.6977 -68.6766 58.2102 -41.6443 0.0000 -0.0000 -0.8639 -36.5848 2.4784 -1.8384 7.1250 -0.0000 -0.0000 -7.6250 -26.8754 -3.3825
0.00 0.00 0.00 -4.9291 11.4867 -15.8045 0.0000 0.0000 0.0000 -12.8905 -10.8326 -26.0156 8.5154 16.4856 54.3986 0.1555 -13.9189 -11.5343 0.0260 -1.0401 -2.8593 0.0000 0.0000 0.0000 23.4104 2.4324 -25.2361 -7.3875 -15.6497 50.3252 -0.0825 -2.4930 -6.9399 -0.0935 -1.9722 5.4288 4.2051 -1.0876 17.9009 3.2652 -0.2487 0.7583 1.2195 -0.2137 -9.2527 -3.6775 -2.6255 -22.1217 -2.3468 -1.6894 25.1201 -0.5454 -1.4301 11.9600 0.0000 -0.0000 0.0000 -91.1059 12.4497 27.1052 51.8324 -53.7083 -27.6444 -0.0000 -0.0000 1.6745 28.1942 -0.7573 -0.4059 -7.1250 0.0000 -0.0000 1.2714 29.1195 -0.4921 0.0000 -0.0000 0.0000 81.7779 -5.8980 26.0147 -52.8610 54.0862 -28.4755 0.0000 0.0000 1.1063 -32.0352 -1.5093 0.9442 7.1250 -0.0000 -0.0000 -4.3805 -31.7410 -1.4245
0.00 0.00 0.00 -2.7432 7.1963 -9.2544 0.0000 0.0000 0.0000 -15.0620 -10.9381 -15.1170 4.0076 12.1704 36.3376 -0.1717 -8.9908 -2.2746 0.0506 1.4522 3.9940 0.0000 0.0000 0.0000 24.0104 1.2165 -17.6885 -4.7017 -13.0398 39.5177 -0.1509 -0.1782 -7.4024 -0.1809 -2.7398 7.5551 3.7294 0.1188 12.1481 3.0202 0.9252 -0.4488 0.9256 0.3738 -7.3050 -2.7568 -1.4935 -21.5377 -3.9003 0.0137 24.8548 -0.9878 -0.7781 11.7376 -0.0000 -0.0000 0.0000 -90.5160 14.3950 25.9437 37.3546 -46.4221 -16.4964 -0.0000 0.0000 -2.6254 19.9950 5.8428 2.1214 -7.1250 0.0000 -0.0000 -5.6444 36.1456 1.2335 -0.0000 -0.0000 0.0000 83.6167 0.9622 22.5347 -30.8918 41.6456 -11.9978 0.0000 -0.0000 -0.6869 -32.3668 -6.0811 3.8413 7.1250 -0.0000 -0.0000 -4.7931 -37.1310 -0.9306
0.00 0.00 0.00 -3.3328 0.7702 3.1187 0.0000 0.0000 0.0000 -17.3872 -6.8281 -7.2469 2.5483 9.9253 28.7350 0.9029 -6.2553 -16.9472 0.0638 1.6292 4.4819 0.0000 0.0000 0.0000 23.7852 3.0956 -7.0481 -2.3737 -9.6046 27.7055 -0.9767 4.5179 -17.7112 -0.0655 -1.6509 4.5419 3.6279 -0.2085 3.4249 3.4145 0.0804 -2.8784 1.4993 -0.0211 -4.9081 0.0771 0.7858 -23.3033 -5.8393 2.7350 23.0958 -1.7237 0.4602 11.4995 0.0000 0.0000 0.0000 -91.3362 9.2076 24.4094 21.8509 -32.8081 -6.5049 -0.0000 -0.0000 8.2487 7.9600 8.7895 1.2240 -7.1250 0.0000 -0.0000 -16.2152 38.3636 2.7361 0.0000 0.0000 0.0000 87.8913 -1.1786 11.3091 -15.1421 24.3437 -3.2843 0.0000 0.0000 6.4434 -28.7931 -10.0139 5.4591 7.1250 -0.0000 -0.0000 -1.5919 -41.3665 -0.1427
0.00 0.00 0.00 -1.5294 -0.4524 12.7940 0.0000 0.0000 0.0000 -22.4528 -6.0587 -4.7393 2.5078 9.8521 28.4991 2.7796 -7.9255 -30.1311 0.2517 3.2281 8.9145 0.0000 0.0000 0.0000 18.8598 2.9779 -12.4592 -5.2682 -13.6796 41.9690 -2.6916 7.6125 -29.6499 -0.9482 6.2014 -17.3698 1.4551 0.0466 6.2140 2.3161 0.3542 -3.5757 1.5684 0.1665 -7.2444 0.4480 1.1447 -25.4356 -4.9659 2.7119 20.0432 -1.4334 0.6226 10.7338 0.0000 0.0000 0.0000 -88.3789 9.6234 36.6641 27.4234 -38.5800 -9.7620 -0.0000 -0.0000 1.1198 8.1593 8.5788 1.2252 -7.1250 0.0000 -0.0000 -15.9990 38.1738 2.7744 0.0000 0.0000 0.0000 88.6784 -1.3387 28.3046 -21.5383 32.4513 -6.3363 0.0000 0.0000 1.5470 -27.9313 -9.0672 4.7760 7.1250 -0.0000 -0.0000 -0.8830 -40.2170 -0.1041
0.00 0.00 0.00 0.3233 -0.0184 14.5497 0.0000 0.0000 0.0000 -24.4069 -4.6516 -3.2224 2.0939 9.0591 25.9803 2.9083 -9.3704 -30.7791 0.1842 2.7643 7.6232 0.0000 0.0000 0.0000 15.8744 3.8322 -20.4707 -9.4394 -17.0823 57.5976 -1.7964 6.8432 -24.0683 -1.2569 7.1073 -20.0337 -0.2636 -0.3728 7.7148 1.6266 -0.4066 -3.5345 1.9246 -0.1360 -8.0493 0.7302 1.3563 -25.5807 -4.7060 2.7952 19.3322 -1.3653 0.7267 10.4981 -0.0000 0.0000 0.0000 -87.3565 8.3436 38.5015 30.1893 -41.0551 -11.5337 -0.0000 0.0000 -1.0259 9.0080 7.7966 1.2320 -7.1250 0.0000 -0.0000 -15.1163 37.4713 2.8809 -0.0000 0.0000 0.0000 88.6411 -2.9381 26.8883 -23.2023 34.3092 -7.2520 0.0000 0.0000 0.4898 -28.2650 -7.8898 4.2210 7.1250 -0.0000 -0.0000 -1.2366 -38.9186 -0.1853
